<?xml version="1.0" encoding="UTF-8" standalone="no"?>
<!-- Created with Inkscape (http://www.inkscape.org/) -->

<svg
   xmlns:dc="http://purl.org/dc/elements/1.1/"
   xmlns:cc="http://creativecommons.org/ns#"
   xmlns:rdf="http://www.w3.org/1999/02/22-rdf-syntax-ns#"
   xmlns:svg="http://www.w3.org/2000/svg"
   xmlns="http://www.w3.org/2000/svg"
   xmlns:sodipodi="http://sodipodi.sourceforge.net/DTD/sodipodi-0.dtd"
   xmlns:inkscape="http://www.inkscape.org/namespaces/inkscape"
   width="232.74796mm"
   height="100mm"
   viewBox="0 0 232.74796 100"
   version="1.1"
   id="svg8"
   sodipodi:docname="logo.svg"
   inkscape:version="0.92.5 (2060ec1f9f, 2020-04-08)">
  <defs
     id="defs2" />
  <sodipodi:namedview
     id="base"
     pagecolor="#ffffff"
     bordercolor="#666666"
     borderopacity="1.0"
     inkscape:pageopacity="0.0"
     inkscape:pageshadow="2"
     inkscape:zoom="0.7"
     inkscape:cx="588.85283"
     inkscape:cy="89.40843"
     inkscape:document-units="mm"
     inkscape:current-layer="layer1"
     showgrid="false"
     inkscape:window-width="1440"
     inkscape:window-height="786"
     inkscape:window-x="0"
     inkscape:window-y="27"
     inkscape:window-maximized="1"
     fit-margin-top="0"
     fit-margin-left="0"
     fit-margin-right="0"
     fit-margin-bottom="0" />
  <metadata
     id="metadata5">
    <rdf:RDF>
      <cc:Work
         rdf:about="">
        <dc:format>image/svg+xml</dc:format>
        <dc:type
           rdf:resource="http://purl.org/dc/dcmitype/StillImage" />
        <dc:title></dc:title>
      </cc:Work>
    </rdf:RDF>
  </metadata>
  <g
     inkscape:label="Capa 1"
     inkscape:groupmode="layer"
     id="layer1"
     transform="translate(126.13254,-168.22426)">
    <g
       id="g1079"
       transform="translate(0,3.6457046)">
      <circle
         r="50"
         cy="214.57855"
         cx="-76.132538"
         id="path1066"
         style="opacity:1;fill:#ec0000;fill-opacity:1;stroke:none;stroke-width:2.06499982;stroke-linecap:round;stroke-linejoin:miter;stroke-miterlimit:4;stroke-dasharray:none;stroke-dashoffset:0;stroke-opacity:1" />
      <g
         style="stroke-width:0.44013911"
         transform="matrix(2.2720089,0,0,2.2720089,-319.333,-260.73018)"
         id="g1074">
        <path
           sodipodi:type="star"
           style="opacity:1;fill:#ececec;fill-opacity:1;stroke:none;stroke-width:2.14516878;stroke-linecap:round;stroke-linejoin:miter;stroke-miterlimit:4;stroke-dasharray:none;stroke-dashoffset:0;stroke-opacity:1"
           id="path1068"
           sodipodi:sides="3"
           sodipodi:cx="24.321527"
           sodipodi:cy="206.6629"
           sodipodi:r1="25.970568"
           sodipodi:r2="12.985284"
           sodipodi:arg1="0.52359878"
           sodipodi:arg2="1.5707963"
           inkscape:flatsided="true"
           inkscape:rounded="0"
           inkscape:randomized="0"
           d="m 46.812699,219.64819 -44.982343,0 22.491172,-38.95585 z"
           inkscape:transform-center-y="5.281411e-06"
           transform="matrix(0,0.42369032,-0.42369032,0,194.65233,198.89717)"
           inkscape:transform-center-x="-2.7508756" />
      </g>
    </g>
    <g
       style="fill:#000000;stroke-width:0.36399612"
       id="g999"
       transform="matrix(0.72688502,0,0,0.72688502,-15.228662,180.19944)">
      <g
         transform="translate(-3.84,-39.040769)"
         id="g2261"
         style="fill:#000000;stroke-width:0.36399612">
        <path
           style="fill:#ffcc00;fill-opacity:1;stroke:none;stroke-width:1.96557915;stroke-miterlimit:4;stroke-dasharray:none;stroke-opacity:1"
           inkscape:connector-curvature="0"
           d="m 63.072,134.90564 c 0.064,0.384 0.096,0.768 0.096,1.152 0.064,0.32 0.096,0.704 0.096,1.152 0,0.768 -0.224,1.472 -0.672,2.112 -0.192,0.32 -0.448,0.64 -0.768,0.96 -0.32,0.256 -0.704,0.48 -1.152,0.672 -1.6,0.896 -3.296,1.216 -5.088,0.96 -0.896,-0.256 -1.696,-0.672 -2.4,-1.248 -0.128,-0.128 -0.224,-0.192 -0.288,-0.192 -0.064,-0.064 -0.128,-0.16 -0.192,-0.288 -0.064,-0.064 -0.128,-0.128 -0.192,-0.192 -0.064,-0.128 -0.16,-0.224 -0.288,-0.288 -0.32,-0.32 -0.576,-0.608 -0.768,-0.864 -0.192,-0.32 -0.384,-0.64 -0.576,-0.96 -0.128,-0.32 -0.288,-0.608 -0.48,-0.864 -0.128,-0.32 -0.288,-0.64 -0.48,-0.96 -0.128,-0.256 -0.256,-0.48 -0.384,-0.672 -0.128,-0.256 -0.224,-0.512 -0.288,-0.768 -0.256,-0.576 -0.416,-1.088 -0.48,-1.536 l -2.016,-4.704 c -4.416,0 -8.832,0.032 -13.248,0.096 -4.352,0 -8.736,-0.032 -13.152,-0.096 l -2.016,4.704 c -0.128,0.256 -0.224,0.512 -0.288,0.768 0,0.256 -0.064,0.512 -0.192,0.768 -0.128,0.256 -0.256,0.512 -0.384,0.768 -0.064,0.192 -0.16,0.416 -0.288,0.672 -0.192,0.32 -0.384,0.64 -0.576,0.96 -0.128,0.256 -0.288,0.544 -0.48,0.864 -0.128,0.32 -0.288,0.64 -0.48,0.96 -0.192,0.256 -0.448,0.544 -0.768,0.864 -0.128,0.064 -0.224,0.16 -0.288,0.288 -0.064,0.064 -0.128,0.128 -0.192,0.192 -0.064,0.128 -0.128,0.224 -0.192,0.288 -0.064,0 -0.16,0.064 -0.288,0.192 -0.704,0.576 -1.504,0.992 -2.4,1.248 -1.792,0.256 -3.488,-0.064 -5.088,-0.96 -0.448,-0.192 -0.832,-0.416 -1.152,-0.672 -0.32,-0.32 -0.576,-0.64 -0.768,-0.96 -0.448,-0.64 -0.672,-1.344 -0.672,-2.112 0,-0.448 0,-0.832 0,-1.152 0.064,-0.384 0.128,-0.768 0.192,-1.152 0.128,-0.576 0.288,-1.152 0.48,-1.728 0.192,-0.576 0.288,-0.864 0.288,-0.864 l 19.968,-49.152002 0.576,-1.536 c 0.128,-0.384 0.288,-0.736 0.48,-1.056 0.192,-0.32 0.352,-0.704 0.48,-1.152 0.32,-0.832 0.672,-1.568 1.056,-2.208 0.192,-0.384 0.416,-0.736 0.672,-1.056 0.256,-0.32 0.512,-0.64 0.768,-0.96 0.384,-0.512 0.928,-0.928 1.632,-1.248 0.896,-0.32 1.92,-0.48 3.072,-0.48 1.216,0 2.272,0.16 3.168,0.48 0.704,0.32 1.248,0.736 1.632,1.248 0.448,0.576 0.928,1.248 1.44,2.016 0.384,0.64 0.736,1.376 1.056,2.208 0.128,0.448 0.288,0.832 0.48,1.152 0.192,0.32 0.352,0.672 0.48,1.056 l 0.576,1.536 19.968,49.152002 c 0,0 0.096,0.288 0.288,0.864 0.192,0.576 0.352,1.152 0.48,1.728 z m -22.752,-23.52 c -0.832,-1.856 -1.696,-3.776 -2.592,-5.76 -0.832,-1.984 -1.728,-4 -2.688,-6.048002 -0.256,-0.576 -0.512,-1.152 -0.768,-1.728 -0.256,-0.64 -0.512,-1.248 -0.768,-1.824 -0.192,0.576 -0.416,1.184 -0.672,1.824 -0.256,0.576 -0.512,1.152 -0.768,1.728 -0.96,2.048002 -1.888,4.064002 -2.784,6.048002 -0.832,1.984 -1.664,3.904 -2.496,5.76 l -1.728,4.224 h 16.992 z"
           id="path25" />
        <path
           style="fill:#ec0000;fill-opacity:1;stroke:none;stroke-width:1.96557915;stroke-miterlimit:4;stroke-dasharray:none;stroke-opacity:1"
           inkscape:connector-curvature="0"
           d="m 170.816,126.66079 c 0.832,1.856 0.864,3.68 0.096,5.472 -0.768,1.728 -1.984,3.328 -3.648,4.8 -1.664,1.472 -3.584,2.752 -5.76,3.84 -2.112,1.088 -4.128,1.856 -6.048,2.304 -2.112,0.448 -4.352,0.64 -6.72,0.576 -2.304,0 -4.64,-0.288 -7.008,-0.864 -2.304,-0.512 -4.576,-1.28 -6.816,-2.304 -2.176,-1.088 -4.192,-2.4 -6.048,-3.936 -2.24,-1.856 -4,-4.064 -5.28,-6.624 -1.216,-2.624 -2.112,-5.408 -2.688,-8.352 -0.576,-2.944 -0.896,-5.888 -0.96,-8.832 0,-3.008 0.096,-5.824 0.288,-8.448 0.192,-2.368 0.672,-4.831998 1.44,-7.391998 0.768,-2.560002 1.824,-5.056002 3.168,-7.488002 1.408,-2.496 3.072,-4.8 4.992,-6.912 1.984,-2.112 4.288,-3.904 6.912,-5.376 1.984,-1.152 4.192,-1.92 6.624,-2.304 2.496,-0.448 4.992,-0.544 7.488,-0.288 2.56,0.192 4.96,0.736 7.2,1.632 2.304,0.832 4.256,1.984 5.856,3.456 1.024,0.896 2.08,2.144 3.168,3.744 1.152,1.6 1.984,3.232 2.496,4.896 0.512,1.664 0.512,3.232 0,4.704 -0.448,1.408 -1.728,2.368 -3.84,2.88 -0.896,0.256 -1.696,0.320002 -2.4,0.192 -0.704,-0.192 -1.344,-0.48 -1.92,-0.864 -0.576,-0.448 -1.12,-0.96 -1.632,-1.536 -0.512,-0.576 -0.992,-1.152 -1.44,-1.728 -1.536,-1.856 -3.328,-3.104 -5.376,-3.744 -2.048,-0.704 -4.096,-0.864 -6.144,-0.48 -1.984,0.32 -3.872,1.152 -5.664,2.496 -1.728,1.28 -3.072,2.944 -4.032,4.992 -1.024,2.176002 -1.856,4.576002 -2.496,7.2 -0.576,2.56 -0.896,5.184 -0.96,7.872 -0.064,2.624 0.16,5.184 0.672,7.68 0.576,2.496 1.536,4.704 2.88,6.624 1.024,1.536 2.272,2.784 3.744,3.744 1.536,0.96 3.168,1.632 4.896,2.016 1.728,0.384 3.456,0.448 5.184,0.192 1.792,-0.256 3.52,-0.832 5.184,-1.728 0.512,-0.256 1.056,-0.608 1.632,-1.056 0.64,-0.512 1.28,-1.024 1.92,-1.536 0.64,-0.512 1.28,-0.992 1.92,-1.44 0.704,-0.448 1.44,-0.768 2.208,-0.96 1.152,-0.384 2.4,-0.352 3.744,0.096 1.408,0.448 2.464,1.376 3.168,2.784 z"
           id="path29" />
        <path
           style="fill:#1989d7;fill-opacity:1;stroke:none;stroke-width:1.96557915;stroke-miterlimit:4;stroke-dasharray:none;stroke-opacity:1"
           inkscape:connector-curvature="0"
           d="m 103.1728,71.344769 c 1.856,1.216 3.424,2.656 4.704,4.32 1.344,1.6 2.4,3.584 3.168,5.952 0.832,2.624 1.248,5.28 1.248,7.968 0.064,2.624 -0.416,5.088 -1.44,7.392 -0.96,2.24 -2.528,4.224001 -4.704,5.952001 -2.112,1.664 -4.896,2.848 -8.352,3.552 -1.855996,0.448 -4.031996,0.8 -6.527996,1.056 -2.496,0.256 -4.736,0.384 -6.72,0.384 -2.496,0.064 -5.088,0.064 -7.776,0 -2.624,0 -5.184,-0.256 -7.68,-0.768 -1.088,-0.32 -1.888,-0.864 -2.4,-1.632 -0.448,-0.832 -0.768,-1.76 -0.96,-2.784 -0.256,-0.576 -0.384,-1.152 -0.384,-1.728 V 46.480769 c 0,-1.792 0.352,-3.168 1.056,-4.128 0.768,-1.024 1.76,-1.76 2.976,-2.208 1.216,-0.512 2.592,-0.8 4.128,-0.864 1.536,-0.128 3.136,-0.192 4.8,-0.192 1.28,0 2.56,0 3.84,0 1.344,-0.064 2.688,-0.064 4.032,0 2.112,0.064 4.288,0.256 6.528,0.576 2.304,0.256 4.48,0.768 6.527996,1.536 0.96,0.32 1.984,0.768 3.072,1.344 1.088,0.512 1.952,1.152 2.592,1.92 2.048,1.856 3.552,4.032 4.512,6.528 1.024,2.432 1.472,4.928 1.344,7.488 -0.128,2.496 -0.832,4.896 -2.112,7.2 -1.216,2.304 -3.04,4.192 -5.472,5.664 z m -16.799996,25.44 c 1.984,-0.128 4,-0.352 6.048,-0.672 2.048,-0.32 3.456,-0.928 4.224,-1.824 0.831996,-1.024 1.407996,-2.208 1.727996,-3.552 0.384,-1.408 0.48,-2.816 0.288,-4.224 -0.128,-1.472 -0.544,-2.848 -1.248,-4.128 -0.639996,-1.344 -1.503996,-2.4 -2.591996,-3.168 -1.472,-1.152 -3.168,-1.888 -5.088,-2.208 -1.92,-0.384 -3.808,-0.576 -5.664,-0.576 -0.896,0 -1.728,0.032 -2.496,0.096 -0.704,0 -1.344,0.096 -1.92,0.288 -0.512,0.128 -0.896,0.416 -1.152,0.864 -0.256,0.448 -0.384,1.12 -0.384,2.016 0.128,1.664 0.128,3.328 0,4.992 -0.128,1.664 -0.192,3.264 -0.192,4.8 0,0.896 -0.032,1.888 -0.096,2.976 0,1.024 0.352,1.888 1.056,2.592 0.704,0.704 1.728,1.184 3.072,1.44 1.344,0.256 2.816,0.352 4.416,0.288 z m 1.92,-46.08 c -1.984,-0.064 -3.648,-0.096 -4.992,-0.096 -1.28,-0.064 -2.304,0.032 -3.072,0.288 -0.704,0.192 -1.216,0.672 -1.536,1.44 -0.256,0.704 -0.352,1.792 -0.288,3.264 0,1.216 -0.032,2.432 -0.096,3.648 0,1.152 0,2.304 0,3.456 0,1.28 0.416,2.24 1.248,2.88 0.832,0.576 1.856,0.928 3.072,1.056 1.28,0.128 2.592,0.128 3.936,0 1.408,-0.128 2.624,-0.288 3.648,-0.48 2.304,-0.384 4.064,-1.152 5.28,-2.304 1.28,-1.216 2.015996,-2.976 2.207996,-5.28 0.256,-2.88 -0.511996,-4.864 -2.303996,-5.952 -1.728,-1.152 -4.096,-1.792 -7.104,-1.92 z"
           id="path33" />
      </g>
    </g>
  </g>
</svg>
